<svg id="Layer_1" data-name="Layer 1" xmlns="http://www.w3.org/2000/svg" viewBox="0 0 29.77 20"><defs><style>.cls-1{fill:#00703c;}</style></defs><title>behance</title><path class="cls-1" d="M4,20H9.45s5.91-.22,5.91-6.2c0,0,.26-4.86-3.48-4.86,0,0,2.84-.22,2.84-3.73S12.39,0,9.45,0H0V20H4ZM4,3.48H9.45s1.31,0,1.31,2S10,7.85,9.11,7.85H4Zm0,7.39H9.45s2,0,2,2.69c0,2.29-1.46,2.53-2.23,2.55H4Z"/><path class="cls-1" d="M23.24,5c-7.15,0-7.15,7.52-7.15,7.52S15.6,20,23.24,20c0,0,6.37.38,6.37-5.21H26.33s.11,2.11-3,2.11a3.08,3.08,0,0,1-3.28-3.41h9.64S30.77,5,23.24,5ZM20,10.87s.4-3,3.28-3,2.84,3,2.84,3Z"/><rect class="cls-1" x="19.24" y="1.15" width="7.68" height="1.85"/></svg>