<?xml version="1.0" encoding="utf-8"?>
<!-- Generator: Adobe Illustrator 21.1.0, SVG Export Plug-In . SVG Version: 6.00 Build 0)  -->
<svg version="1.1" xmlns="http://www.w3.org/2000/svg" xmlns:xlink="http://www.w3.org/1999/xlink" x="0px" y="0px"
	 viewBox="0 0 3235 1304" style="enable-background:new 0 0 3235 1304;" xml:space="preserve">
<style type="text/css">
	.st0{fill:#595959;}
	.st1{fill:#BEBEBE;}
	.st2{display:none;fill:#595959;}
	.st3{fill:#DEDEDE;}
	.st4{fill:#316F3F;}
	.st5{fill:#71A87B;}
</style>
<g id="box">
	<polygon id="right_6_" class="st0" points="1132.6,978.6 1136.3,328 566.8,639.2 568.1,1302.1 	"/>
	<polygon id="grey-left" class="st1" points="567,642 1.9,328.1 0,973.1 568.6,1304 	"/>
	<polygon id="grey-top-left" class="st1" points="568.6,0.7 572.3,649.5 0.8,328 	"/>
	<polygon id="mujnyhbtgv" class="st0" points="568.5,0.7 564.8,649.5 1136.3,328 	"/>
	<polygon id="top_7_" class="st2" points="1533.4,-843.5 1525.4,563.4 2751.9,-146.1 	"/>
	<polygon id="dark-left" class="st0" points="168.4,231.2 165.7,696.3 568.8,461.1 568.8,0 	"/>
	<polygon id="grey-right" class="st1" points="969.2,231.2 971.8,696.3 568.8,461.1 568.8,0 	"/>
	<polygon id="r-base" class="st3" points="563.8,920.8 165.7,696.3 568.8,461.1 971.8,696.3 	"/>
	<polygon id="dark-triangle" class="st0" points="738.2,832.5 651,783.8 567.7,734.4 567.7,931 	"/>
	<polygon id="grey-triangle" class="st1" points="567.7,733.4 476.7,784.9 402.2,830.2 567.7,931 	"/>
	<path id="r-divet" class="st1" d="M663.4,513.4L588,573.1c71-17.6,139-13.4,204.4,14L663.4,513.4z"/>
</g>
<g id="text">
	<g>
		<path class="st4" d="M1501.2,374.4c-10.6-3.5-21.3-5.3-31.9-5.3c-15.6,0-28.5,3.7-38.6,11.2s-16.8,16.9-20,28.2v177.3h-74.5V306.2
			h58.6l8,38.9h6.9c7.1-14.5,16.6-25.7,28.5-33.5c11.9-7.8,25.5-11.7,40.7-11.7c9.6,0,20.6,2,33,5.9L1501.2,374.4z"/>
		<path class="st4" d="M1679,461.2l11.7,44.7h5.3l10.1-44.7l47.4-154.9h76.1L1737,559.1c-7.8,20.9-15.2,39.7-22.1,56.4
			c-6.9,16.7-14.5,30.9-22.6,42.6c-8.2,11.7-17.3,20.7-27.4,26.9c-10.1,6.2-22.1,9.3-35.9,9.3c-9.2,0-18-0.8-26.4-2.4
			c-8.3-1.6-15.5-4-21.6-7.2l15.4-57.5c5.3,1.8,10.8,2.7,16.5,2.7c5,0,9.8-0.5,14.4-1.6c4.6-1.1,8.9-3.1,12.8-6.1
			c3.9-3,7.5-7.3,10.9-12.8c3.4-5.5,6.3-12.9,8.8-22.1L1532,306.2h90L1679,461.2z"/>
		<path class="st4" d="M1886.6,325.4c16-7.1,35.6-13,58.8-17.6c23.2-4.6,47.3-6.9,72.1-6.9c19.5,0,35.9,2.3,49.2,6.9
			c13.3,4.6,23.9,11.3,31.7,20c7.8,8.7,13.4,19.2,16.8,31.4c3.4,12.2,5.1,25.8,5.1,40.7c0,18.1-0.7,36-2.1,53.8
			c-1.4,17.8-2.1,36.6-2.1,56.4c0,13.5,0.9,26.6,2.7,39.4c1.8,12.8,4.6,25,8.5,36.7h-60.7l-12.2-41.5h-6.4
			c-9.2,12.4-20.9,23.1-35.1,31.9c-14.2,8.9-32.5,13.3-54.8,13.3c-13.5,0-25.8-2-37-5.9s-20.8-9.5-28.7-16.8
			c-8-7.3-14.2-15.9-18.6-25.8c-4.4-9.9-6.7-20.8-6.7-32.5c0-31.6,10.6-55.4,31.7-71.6c21.1-16.1,53.1-24.2,96.1-24.2
			c9.9,0,19.9,0.8,29.8,2.4c9.9,1.6,16.9,2.8,20.8,3.5c1.1-7.5,1.6-13.8,1.6-19.2c0-13.5-3.4-23.4-10.1-29.8
			c-6.7-6.4-19.3-9.6-37.8-9.6c-17,0-33.6,2-49.8,6.1c-16.2,4.1-30.4,9.1-42.9,15.2L1886.6,325.4z M1984,530.4
			c16.7,0,30-3.9,39.9-11.7c9.9-7.8,17.2-16,21.8-24.5v-31.9c-1.8-0.7-4.5-1.4-8.3-2.1c-3.7-0.7-7.8-1.4-12.2-2.1
			c-4.4-0.7-8.9-1.2-13.3-1.6c-4.4-0.3-8.4-0.5-12-0.5c-19.2,0-33.4,3.5-42.6,10.4c-9.2,6.9-13.8,15.5-13.8,25.8
			c0,12.8,3.6,22.4,10.9,28.7C1961.7,527.2,1971.6,530.4,1984,530.4z"/>
		<path class="st4" d="M2410.4,585.7V432.4c0-24.1-3.7-41.5-11.2-52.2s-20.6-16-39.4-16c-16,0-29.5,4.4-40.7,13
			c-11.2,8.7-18.9,19.8-23.2,33.3c0,29.1,0.1,58.3,0.3,87.6c0.2,29.3,0.3,58.5,0.3,87.6H2222V306.2h58.6l8,39.9h8
			c9.2-13.1,21.5-24.4,36.7-33.8c15.3-9.4,35.1-14.1,59.6-14.1c14.9,0,28.1,1.9,39.7,5.6c11.5,3.7,21.1,10.1,28.7,19.2
			c7.6,9.1,13.5,21.2,17.6,36.5c4.1,15.3,6.1,34.4,6.1,57.5v168.8H2410.4z"/>
	</g>
	<g>
		<path class="st5" d="M1549,753.9c9.6,23.4,19,47,28.2,70.8c9.2,23.8,18.6,47.4,28.2,70.8l10.6,46.8h8l8-47.4
			c6.4-23.8,13-47.3,19.7-70.5c6.7-23.2,13.3-46.8,19.7-70.5h68.1l-95.3,282.2h-53.8c-9.6-24.5-19.9-50.1-30.9-76.9
			c-11-26.8-21.3-52.4-30.9-76.9l-7.5-36.2h-9.6c-1.1,6-2.3,12.2-3.7,18.4c-1.4,6.2-2.7,12.3-3.7,18.4l-58,153.3h-56.4l-98-282.2
			h80.9l44.7,137.9l7.5,51.6h8l10.6-52.2l50.6-137.3H1549z"/>
		<path class="st5" d="M1769.9,773c16-7.1,35.6-13,58.8-17.6c23.2-4.6,47.3-6.9,72.1-6.9c19.5,0,35.9,2.3,49.2,6.9
			c13.3,4.6,23.9,11.3,31.7,20c7.8,8.7,13.4,19.2,16.8,31.4c3.4,12.2,5.1,25.8,5.1,40.7c0,18.1-0.7,36-2.1,53.8
			c-1.4,17.8-2.1,36.6-2.1,56.4c0,13.5,0.9,26.6,2.7,39.4c1.8,12.8,4.6,25,8.5,36.7h-60.7l-12.2-41.5h-6.4
			c-9.2,12.4-20.9,23.1-35.1,31.9c-14.2,8.9-32.5,13.3-54.8,13.3c-13.5,0-25.8-2-37-5.9c-11.2-3.9-20.8-9.5-28.7-16.8
			c-8-7.3-14.2-15.9-18.6-25.8c-4.4-9.9-6.7-20.8-6.7-32.5c0-31.6,10.6-55.4,31.7-71.6c21.1-16.1,53.1-24.2,96.1-24.2
			c9.9,0,19.9,0.8,29.8,2.4c9.9,1.6,16.9,2.8,20.8,3.5c1.1-7.5,1.6-13.8,1.6-19.2c0-13.5-3.4-23.4-10.1-29.8
			c-6.7-6.4-19.3-9.6-37.8-9.6c-17,0-33.6,2-49.8,6.1c-16.2,4.1-30.4,9.1-42.9,15.2L1769.9,773z M1867.4,978
			c16.7,0,30-3.9,39.9-11.7c9.9-7.8,17.2-16,21.8-24.5v-31.9c-1.8-0.7-4.5-1.4-8.3-2.1c-3.7-0.7-7.8-1.4-12.2-2.1
			c-4.4-0.7-8.9-1.2-13.3-1.6c-4.4-0.3-8.4-0.5-12-0.5c-19.2,0-33.4,3.5-42.6,10.4c-9.2,6.9-13.8,15.5-13.8,25.8
			c0,12.8,3.6,22.4,10.9,28.7C1845.1,974.8,1854.9,978,1867.4,978z"/>
		<path class="st5" d="M2333.7,1022.7c0,41.2-11.7,71.5-35.1,91c-23.4,19.5-56.6,29.3-99.6,29.3c-27.7,0-50-1.9-66.8-5.6
			c-16.9-3.7-29.9-7.9-39.1-12.5c4.6-14.2,8.1-25.5,10.4-33.8c2.3-8.3,4-14.6,5.1-18.9c1.1-4.3,1.9-7.5,2.7-9.6
			c8.5,4.3,18.8,8.6,30.9,13c12.1,4.4,26.8,6.7,44.2,6.7c14.5,0,26.6-1.4,36.2-4.3c9.6-2.8,17.2-7,22.9-12.5c5.7-5.5,9.7-12.2,12-20
			c2.3-7.8,3.5-16.5,3.5-26.1v-20.8h-6.4c-7.1,10.3-16.9,17.6-29.3,21.8c-12.4,4.3-27.9,6.4-46.3,6.4c-38,0-66.5-10.5-85.4-31.4
			c-19-20.9-28.5-54.7-28.5-101.1c0-49,12.5-85.9,37.5-110.7c25-24.8,62.2-37.3,111.5-37.3c25.9,0,49.1,1.7,69.5,5.1
			c20.4,3.4,37.2,7.2,50.3,11.4V1022.7z M2196.4,968.9c16.3,0,29.7-3,40.2-9c10.5-6,18-13.5,22.6-22.4V817.2
			c-13.1-5.7-29.8-8.5-50-8.5c-21.7,0-38.3,6.4-50,19.2s-17.6,33.9-17.6,63.4c0,27,5,46.7,14.9,59.1
			C2166.4,962.7,2179.7,968.9,2196.4,968.9z"/>
		<path class="st5" d="M2663.2,1022.7c0,41.2-11.7,71.5-35.1,91c-23.4,19.5-56.6,29.3-99.6,29.3c-27.7,0-50-1.9-66.8-5.6
			c-16.9-3.7-29.9-7.9-39.1-12.5c4.6-14.2,8.1-25.5,10.4-33.8c2.3-8.3,4-14.6,5.1-18.9c1.1-4.3,1.9-7.5,2.7-9.6
			c8.5,4.3,18.8,8.6,30.9,13c12.1,4.4,26.8,6.7,44.2,6.7c14.5,0,26.6-1.4,36.2-4.3c9.6-2.8,17.2-7,22.9-12.5c5.7-5.5,9.7-12.2,12-20
			c2.3-7.8,3.5-16.5,3.5-26.1v-20.8h-6.4c-7.1,10.3-16.9,17.6-29.3,21.8c-12.4,4.3-27.9,6.4-46.3,6.4c-38,0-66.5-10.5-85.4-31.4
			c-19-20.9-28.5-54.7-28.5-101.1c0-49,12.5-85.9,37.5-110.7c25-24.8,62.2-37.3,111.5-37.3c25.9,0,49.1,1.7,69.5,5.1
			c20.4,3.4,37.2,7.2,50.3,11.4V1022.7z M2525.9,968.9c16.3,0,29.7-3,40.2-9c10.5-6,18-13.5,22.6-22.4V817.2
			c-13.1-5.7-29.8-8.5-50-8.5c-21.7,0-38.3,6.4-50,19.2s-17.6,33.9-17.6,63.4c0,27,5,46.7,14.9,59.1
			C2495.9,962.7,2509.2,968.9,2525.9,968.9z"/>
		<path class="st5" d="M2978.9,1007.8c-12.1,9.2-28.5,17.1-49.2,23.7c-20.8,6.6-43,9.8-66.8,9.8c-47.9,0-83-13.1-105.4-39.4
			c-22.4-26.3-33.5-62.3-33.5-108.1c0-48.6,12.6-85.4,37.8-110.5c25.2-25,60.7-37.5,106.5-37.5c14.9,0,29.6,1.9,44.2,5.6
			c14.5,3.7,27.5,9.9,38.9,18.6c11.4,8.7,20.5,20.4,27.4,35.1c6.9,14.7,10.4,32.9,10.4,54.6c0,7.5-0.4,15.6-1.3,24.5
			c-0.9,8.9-2.4,18.1-4.5,27.7h-186.3c1.8,24.1,8.8,42,21,53.5c12.2,11.5,32.2,17.3,59.9,17.3c16.7,0,31.7-2.4,45-7.2
			c13.3-4.8,23.5-9.7,30.6-14.6L2978.9,1007.8z M2867.1,804.4c-22,0-38.3,5.9-49,17.8c-10.6,11.9-16.9,27.1-18.6,45.5h120.3
			c1.4-19.5-2.1-35-10.6-46.3C2900.7,810.1,2886.6,804.4,2867.1,804.4z"/>
		<path class="st5" d="M3022,753.9h42.6v-38.3l74.5-19.7v58h75.1v62.3h-75.1V913c0,22.4,2.2,38.4,6.7,48.2
			c4.4,9.8,13.2,14.6,26.4,14.6c8.2,0,15.1-0.6,20.8-1.9c5.7-1.2,11.7-3.3,18.1-6.1l15.4,55.9c-11.4,5-24.4,9.2-39.1,12.8
			c-14.7,3.5-29,5.3-42.9,5.3c-27.7,0-47.9-6.8-60.7-20.5c-12.8-13.7-19.2-35.6-19.2-65.7V816.1H3022V753.9z"/>
	</g>
</g>
</svg>
